<svg width="40" height="40" viewBox="0 0 40 40" fill="none" xmlns="http://www.w3.org/2000/svg">
<rect width="40" height="40" rx="20" fill="url(#paint0_linear_159_8195)"/>
<path d="M20 12.9991C20.2732 12.9988 20.5433 13.0567 20.7924 13.169C21.0414 13.2814 21.2636 13.4456 21.4442 13.6506L29.6391 22.9656C29.8981 23.2743 30.026 23.672 29.9956 24.0738C29.9651 24.4756 29.7787 24.8495 29.4761 25.1157C29.1736 25.3818 28.7789 25.519 28.3765 25.4979C27.9741 25.4768 27.5959 25.2991 27.3228 25.0028L20.157 16.8572C20.1374 16.8349 20.1133 16.817 20.0862 16.8047C20.0591 16.7924 20.0297 16.7861 20 16.7861C19.9703 16.7861 19.9409 16.7924 19.9138 16.8047C19.8867 16.817 19.8626 16.8349 19.843 16.8572L12.6772 25.0028C12.4041 25.2991 12.0259 25.4768 11.6235 25.4979C11.2211 25.519 10.8264 25.3818 10.5239 25.1157C10.2213 24.8495 10.0349 24.4756 10.0044 24.0738C9.97397 23.672 10.1019 23.2743 10.3609 22.9656L18.5533 13.654C18.7342 13.4484 18.9567 13.2837 19.2062 13.1708C19.4556 13.0579 19.7262 12.9994 20 12.9991Z" fill="white"/>
<defs>
<linearGradient id="paint0_linear_159_8195" x1="20" y1="40" x2="20" y2="0" gradientUnits="userSpaceOnUse">
<stop stop-color="#F8644C"/>
<stop offset="0.408017" stop-color="#942D42"/>
<stop offset="1" stop-color="#3E2C38"/>
</linearGradient>
</defs>
</svg>
